<svg xmlns="http://www.w3.org/2000/svg" width="28" height="28.001" viewBox="0 0 28 28.001"><defs><style>.a{fill:#b5b5b5;}.b{fill:#8baa48;}</style></defs><path class="a" d="M2.461,0A2.464,2.464,0,0,0,0,2.461V12.469H12.469V0ZM8.149,7.055H7.055V8.149a.82.82,0,1,1-1.641,0V7.055H4.32a.82.82,0,1,1,0-1.641H5.414V4.32a.82.82,0,1,1,1.641,0V5.414H8.149a.82.82,0,1,1,0,1.641Z"/><path class="a" d="M270.022,12.469h.447V2.461A2.464,2.464,0,0,0,268.008,0H258V12.173a9.688,9.688,0,0,1,12.022.3ZM261.5,6.234a.82.82,0,0,1,.82-.82h3.828a.82.82,0,0,1,0,1.641H262.32A.82.82,0,0,1,261.5,6.234Z" transform="translate(-243.89)"/><path class="a" d="M12.173,258H0v10.008a2.464,2.464,0,0,0,2.461,2.461H12.469v-.447a9.688,9.688,0,0,1-.3-12.022Zm-3.991,7.022a.82.82,0,1,1-1.16,1.16l-.787-.787-.787.787a.82.82,0,0,1-1.16-1.16l.787-.787-.787-.787a.82.82,0,1,1,1.16-1.16l.787.787.787-.787a.82.82,0,0,1,1.16,1.16l-.787.787Z" transform="translate(0 -243.89)"/><g transform="translate(11.867 11.867)"><path class="b" d="M225.067,217a8.067,8.067,0,1,0,8.067,8.067A8.076,8.076,0,0,0,225.067,217Zm1.914,10.254h-3.828a.82.82,0,1,1,0-1.641h3.828a.82.82,0,1,1,0,1.641Zm0-2.734h-3.828a.82.82,0,1,1,0-1.641h3.828a.82.82,0,1,1,0,1.641Z" transform="translate(-217 -217)"/></g></svg>