<svg xmlns="http://www.w3.org/2000/svg" width="27.953" height="27.5" viewBox="0 0 27.953 27.5"><defs><style>.a{fill:#b5b5b5;}.b{fill:#8baa48;}</style></defs><g transform="translate(0 0)"><path class="a" d="M12.812,22.023,0,16.15v2.737a.581.581,0,0,0,.351.533l12.461,5.418Z" transform="translate(0 2.66)"/><path class="a" d="M13,22.023V24.84l12.461-5.418a.584.584,0,0,0,.351-.535V16.15Z" transform="translate(2.141 2.66)"/><path class="b" d="M14.444,16.306H11.532a1.458,1.458,0,0,1-1.456-1.456V7.862h-3.2a.874.874,0,0,1-.617-1.491L12.371.256a.874.874,0,0,1,1.236,0l6.115,6.115A.874.874,0,0,1,19.1,7.862H15.9V14.85A1.458,1.458,0,0,1,14.444,16.306Z" transform="translate(0.988)"/><path class="a" d="M19.218,11.063v1.965a3.79,3.79,0,0,1-3.785,3.785H12.521a3.79,3.79,0,0,1-3.785-3.785V11.063L0,15.066l13.977,6.406,13.977-6.406Z" transform="translate(0 1.822)"/></g></svg>