<svg xmlns="http://www.w3.org/2000/svg" width="27.16" height="27.16" viewBox="0 0 27.16 27.16"><defs><style>.a{fill:#8baa48;}.b{fill:#b5b5b5;}</style></defs><path class="a" d="M18.356,11a7.356,7.356,0,1,0,7.356,7.356A7.364,7.364,0,0,0,18.356,11Zm3.178,9.339-2.546,2.829a.851.851,0,0,1-1.263,0l-2.546-2.829a.85.85,0,0,1,.631-1.417h1.415V14.395a1.132,1.132,0,1,1,2.263,0v4.527H20.9A.85.85,0,0,1,21.534,20.339Z" transform="translate(1.448 1.448)"/><path class="b" d="M11.317,0,22.633,4.527,11.317,9.053,0,4.527Z"/><path class="b" d="M10.185,10.228,0,6.154V17.3a.565.565,0,0,0,.37.531l9.815,3.616Z" transform="translate(0 0.81)"/><path class="b" d="M18.356,9.375a9.618,9.618,0,0,1,2.829.426V6.154L11,10.228v2.58A9.6,9.6,0,0,1,18.356,9.375Z" transform="translate(1.448 0.81)"/></svg>