<svg xmlns="http://www.w3.org/2000/svg" width="20.483" height="22.098" viewBox="0 0 20.483 22.098"><defs><style>.a{fill:#fff;}</style></defs><g transform="translate(0)"><path class="a" d="M27.086,20.832H21.322a2.841,2.841,0,0,1-2.837-2.837V4.1a2.841,2.841,0,0,1,2.837-2.837H27.18A.633.633,0,0,0,27.18,0H21.322a4.108,4.108,0,0,0-4.1,4.1V17.994a4.108,4.108,0,0,0,4.1,4.1h5.764a.633.633,0,1,0,0-1.266Z" transform="translate(-17.219)"/><path class="a" d="M135.972,140.535l-4.024-4.024a.633.633,0,0,0-.9.9L134,140.352H121.152a.633.633,0,1,0,0,1.266H134l-2.945,2.945a.635.635,0,0,0,.446,1.083.618.618,0,0,0,.446-.188l4.024-4.024A.633.633,0,0,0,135.972,140.535Z" transform="translate(-115.675 -129.932)"/></g></svg>