<?xml version="1.0" standalone="no"?>
<!DOCTYPE svg PUBLIC "-//W3C//DTD SVG 20010904//EN"
 "http://www.w3.org/TR/2001/REC-SVG-20010904/DTD/svg10.dtd">
<svg version="1.0" xmlns="http://www.w3.org/2000/svg"
 width="28.000000pt" height="31.000000pt" viewBox="0 0 28.000000 31.000000"
 preserveAspectRatio="xMidYMid meet">

<g transform="translate(0.000000,31.000000) scale(0.100000,-0.100000)"
fill="#000000" stroke="none">
<path d="M0 131 l0 -70 125 -3 c69 -2 130 -2 135 0 6 2 10 35 10 73 l0 69
-135 0 -135 0 0 -69z m86 27 c4 -6 -2 -19 -14 -29 -12 -9 -22 -22 -22 -29 0
-6 -4 -8 -10 -5 -11 7 -14 58 -3 68 10 11 41 8 49 -5z m76 -13 c14 -30 -3 -55
-38 -55 -21 0 -24 5 -24 40 0 36 2 40 25 40 17 0 29 -8 37 -25z m59 12 c-8
-10 -7 -17 1 -25 9 -9 9 -12 0 -12 -7 0 -12 -7 -12 -16 0 -24 -25 -11 -28 15
-5 34 5 51 29 51 17 0 19 -3 10 -13z"/>
<path d="M120 131 c0 -11 4 -22 9 -25 11 -7 23 22 15 35 -9 16 -24 10 -24 -10z"/>
</g>
</svg>
